# xmcd
#
# Track frame offsets:
#	150
#	13570
#	27835
#	40152
#	54650
#	67867
#	84295
#	98552
#	108715
#	121125
#	141782
#	154300
#
# Disc length: 2262 seconds
#
# Revision: 0
# Processed by: cddbd v1.4PL0 Copyright (c) Steve Scherf et al.
# Submitted via: audiograbber 1.81.01
#
DISCID=9008d40c
DTITLE=Mino Reitano - I Grandi Successi Originali cd1
DYEAR=1900
DGENRE=pop
TTITLE0=Non prego per me
TTITLE1=Avevo un cuore che ti amava tanto
TTITLE2=Ho giocato a fare il povero
TTITLE3=Meglio una sera (Piangere da solo)
TTITLE4=Una chitarra cento illusioni
TTITLE5=Per un uomo solo
TTITLE6=Gente di fiumara
TTITLE7=Daradan
TTITLE8=Prendi tra le mani la testa
TTITLE9=L'uomo e la valigia
TTITLE10=La pura verità
TTITLE11=Apri le tue braccia e abbraccia il mondo
EXTD=
EXTT0=
EXTT1=
EXTT2=
EXTT3=
EXTT4=
EXTT5=
EXTT6=
EXTT7=
EXTT8=
EXTT9=
EXTT10=
EXTT11=
PLAYORDER=
